# Blender v2.90.1 OBJ File: 'untitled.blend'
# www.blender.org
o Cube.008_Cube.014
v 6.038954 -0.442081 0.608054
v 6.038954 0.199528 0.608054
v 6.052475 -0.442081 5.409429
v 6.052475 0.199528 5.409429
v 2.800919 -0.442081 0.617173
v 2.800919 0.199528 0.617173
v 2.814439 -0.442081 5.418547
v 2.814439 0.199528 5.418547
vt 0.942242 0.563407
vt 0.999146 0.008326
vt 0.999146 0.563407
vt 0.059465 0.993763
vt 0.116369 0.577971
vt 0.116369 0.993763
vt 0.883631 0.563407
vt 0.940535 0.008326
vt 0.940535 0.563407
vt 0.057758 0.577971
vt 0.000854 0.993763
vt 0.000854 0.577971
vt 0.876349 0.008326
vt 0.447816 0.563407
vt 0.447816 0.008326
vt 0.006428 0.563407
vt 0.434960 0.008326
vt 0.434960 0.563407
vt 0.942242 0.008326
vt 0.059465 0.577971
vt 0.883630 0.008326
vt 0.057758 0.993763
vt 0.876349 0.563407
vt 0.006428 0.008326
vn 1.0000 0.0000 -0.0028
vn 0.0028 0.0000 1.0000
vn -1.0000 0.0000 0.0028
vn -0.0028 0.0000 -1.0000
vn 0.0000 -1.0000 -0.0000
vn 0.0000 1.0000 -0.0000
s off
f 2/1/1 3/2/1 1/3/1
f 4/4/2 7/5/2 3/6/2
f 8/7/3 5/8/3 7/9/3
f 6/10/4 1/11/4 5/12/4
f 7/13/5 1/14/5 3/15/5
f 4/16/6 6/17/6 8/18/6
f 2/1/1 4/19/1 3/2/1
f 4/4/2 8/20/2 7/5/2
f 8/7/3 6/21/3 5/8/3
f 6/10/4 2/22/4 1/11/4
f 7/13/5 5/23/5 1/14/5
f 4/16/6 2/24/6 6/17/6
