# Blender v2.91.0 OBJ File: 'untitled.blend'
# www.blender.org
o tray_down_Cube.002
v 0.446758 -1.901501 0.538369
v 0.340581 -1.901501 0.538369
v 0.446758 -1.948384 -0.157425
v 0.340581 -1.948384 -0.157425
v 0.446758 -1.471566 0.537619
v 0.340581 -1.471566 0.537619
v 0.446758 -1.391091 -0.158397
v 0.340581 -1.391091 -0.158397
v -0.298116 2.275963 0.004434
v 0.448263 2.275963 0.004434
v -0.298116 -1.948827 -0.161240
v 0.448263 -1.948827 -0.161240
v -0.298116 -1.936146 0.023240
v 0.448263 -1.936146 0.023240
v -0.191819 -1.901501 0.538369
v -0.297996 -1.901501 0.538369
v -0.191819 -1.948384 -0.157425
v -0.297996 -1.948384 -0.157425
v -0.191819 -1.471566 0.537619
v -0.297996 -1.471566 0.537619
v -0.191819 -1.391091 -0.158397
v -0.297996 -1.391091 -0.158397
v -0.298116 -1.633340 0.020257
v 0.448263 -1.633340 0.020257
v -0.298116 -1.633102 0.156339
v 0.448263 -1.633102 0.156339
v -0.298116 -1.725323 0.020417
v 0.448263 -1.725323 0.020417
v -0.298116 -1.725053 0.156499
v 0.448263 -1.725053 0.156499
v -0.298116 -1.632675 0.400945
v 0.448263 -1.632675 0.400945
v -0.298116 -1.632438 0.537027
v 0.448263 -1.632438 0.537027
v -0.298116 -1.724659 0.401105
v 0.448263 -1.724659 0.401105
v -0.298116 -1.724389 0.537187
v 0.448263 -1.724389 0.537187
v -0.298116 -1.633103 0.156146
v -0.095337 -1.633103 0.156146
v -0.298116 -1.632675 0.401225
v -0.095337 -1.632675 0.401225
v -0.298116 -1.725086 0.156307
v -0.095337 -1.725086 0.156307
v -0.298116 -1.724626 0.401385
v -0.095337 -1.724626 0.401385
v 0.242905 -1.633103 0.156146
v 0.445683 -1.633103 0.156146
v 0.242905 -1.632675 0.401225
v 0.445683 -1.632675 0.401225
v 0.242905 -1.725086 0.156307
v 0.445683 -1.725086 0.156307
v 0.242905 -1.724626 0.401385
v 0.445683 -1.724626 0.401385
v 0.341420 2.275886 0.004430
v 0.446635 2.275886 0.004430
v 0.341420 1.858758 0.189660
v 0.446635 1.858758 0.189660
v 0.341420 -1.446830 0.010927
v 0.446636 -1.446830 0.010927
v 0.341420 -1.434148 0.195407
v 0.446636 -1.434148 0.195407
v -0.298116 2.275886 0.004430
v -0.192900 2.275886 0.004430
v -0.298116 1.858758 0.189660
v -0.192900 1.858758 0.189660
v -0.298116 -1.446830 0.010927
v -0.192900 -1.446830 0.010927
v -0.298116 -1.434148 0.195407
v -0.192900 -1.434148 0.195407
v -0.139683 2.275886 0.004430
v -0.095791 2.275886 0.004430
v -0.139683 1.858758 0.189660
v -0.095790 1.858758 0.189660
v -0.139683 -1.652359 0.011286
v -0.095790 -1.652359 0.011286
v -0.139683 -1.639678 0.195766
v -0.095790 -1.639678 0.195766
v 0.243851 2.275886 0.004430
v 0.287744 2.275886 0.004430
v 0.243851 1.858758 0.189660
v 0.287744 1.858758 0.189660
v 0.243852 -1.652359 0.011286
v 0.287744 -1.652359 0.011286
v 0.243852 -1.639678 0.195766
v 0.287744 -1.639678 0.195766
v 0.341716 -1.206756 0.193507
v 0.287777 -1.206756 0.193507
v 0.341716 -1.207055 0.022051
v 0.287777 -1.207055 0.022051
v 0.341716 -1.169831 0.193442
v 0.287777 -1.169831 0.193442
v 0.341716 -1.170130 0.021987
v 0.287777 -1.170130 0.021987
v -0.139079 -1.206756 0.193507
v -0.193019 -1.206756 0.193507
v -0.139079 -1.207055 0.022051
v -0.193019 -1.207055 0.022051
v -0.139080 -1.169831 0.193442
v -0.193019 -1.169831 0.193442
v -0.139080 -1.170130 0.021987
v -0.193019 -1.170130 0.021987
v -0.139080 -0.170933 0.191699
v -0.193019 -0.170933 0.191699
v -0.139080 -0.171232 0.020243
v -0.193019 -0.171232 0.020243
v -0.139080 -0.134009 0.191634
v -0.193019 -0.134009 0.191634
v -0.139080 -0.134308 0.020179
v -0.193019 -0.134308 0.020179
v 0.341878 -0.170933 0.191699
v 0.287939 -0.170933 0.191699
v 0.341878 -0.171232 0.020243
v 0.287939 -0.171232 0.020243
v 0.341878 -0.134009 0.191634
v 0.287939 -0.134009 0.191634
v 0.341878 -0.134308 0.020179
v 0.287939 -0.134308 0.020179
v -0.298116 2.414363 -0.175979
v -0.298116 -1.936461 -0.156931
v 0.446338 2.414363 -0.175979
v 0.446338 -1.936461 -0.156931
vt 0.752684 0.693660
vt 0.733338 0.826667
vt 0.733338 0.693660
vt 0.593254 0.837522
vt 0.612599 0.731167
vt 0.612599 0.837522
vt 0.523634 0.731564
vt 0.504288 0.864364
vt 0.504288 0.731564
vt 0.826365 0.853252
vt 0.845711 0.771202
vt 0.845711 0.853252
vt 0.663591 -0.000195
vt 0.750248 0.132605
vt 0.671911 0.132605
vt 0.663591 0.406175
vt 0.750248 0.273374
vt 0.765133 0.406175
vt 0.138283 0.813716
vt 0.274277 0.009870
vt 0.274277 0.813716
vt 0.696244 0.689528
vt 0.662573 0.547089
vt 0.696244 0.547089
vt 0.713411 0.826667
vt 0.732758 0.693660
vt 0.732758 0.826667
vt 0.622685 0.837522
vt 0.642031 0.731167
vt 0.642031 0.837522
vt 0.484362 0.864364
vt 0.503708 0.731564
vt 0.503708 0.864364
vt 0.806439 0.853252
vt 0.825784 0.771202
vt 0.825784 0.853252
vt 0.663591 0.136589
vt 0.750248 0.269390
vt 0.671911 0.269390
vt 0.663591 0.542961
vt 0.750248 0.410159
vt 0.765133 0.542961
vt 0.138283 0.009870
vt 0.138283 0.009870
vt 0.138283 0.813716
vt 0.138283 0.009870
vt 0.138283 0.813716
vt 0.622071 0.008468
vt 0.622071 0.718914
vt 0.662573 0.689528
vt 0.752684 0.826667
vt 0.593253 0.731167
vt 0.523634 0.864364
vt 0.826365 0.771202
vt 0.765133 -0.000195
vt 0.671911 0.273374
vt 0.713411 0.693660
vt 0.622685 0.731167
vt 0.484362 0.731564
vt 0.806439 0.771202
vt 0.765133 0.136589
vt 0.671911 0.410159
vt 0.239555 0.852134
vt 0.222801 0.826164
vt 0.239555 0.826164
vt 0.575455 0.874147
vt 0.558701 0.731708
vt 0.575455 0.731708
vt 0.662439 0.693801
vt 0.687223 0.836240
vt 0.662439 0.836240
vt 0.256818 0.826164
vt 0.240064 0.852134
vt 0.240058 0.826164
vt 0.791823 0.789662
vt 0.767028 0.647222
vt 0.791823 0.647222
vt 0.540936 0.874147
vt 0.524176 0.731708
vt 0.540936 0.731708
vt 0.222796 0.852134
vt 0.558701 0.874147
vt 0.687223 0.693801
vt 0.256818 0.852134
vt 0.767028 0.789662
vt 0.524176 0.874147
vt 0.222292 0.852134
vt 0.205539 0.826164
vt 0.222292 0.826164
vt 0.592712 0.874147
vt 0.575958 0.731708
vt 0.592712 0.731708
vt 0.712750 0.836240
vt 0.687966 0.693801
vt 0.712750 0.693801
vt 0.205030 0.826164
vt 0.188276 0.852134
vt 0.188270 0.826164
vt 0.731590 0.547089
vt 0.756385 0.689528
vt 0.731591 0.689528
vt 0.558199 0.874147
vt 0.541439 0.731708
vt 0.558199 0.731708
vt 0.205533 0.852134
vt 0.575958 0.874147
vt 0.687966 0.836240
vt 0.205030 0.852134
vt 0.756385 0.547089
vt 0.541439 0.874147
vt 0.362580 0.865619
vt 0.345826 0.818847
vt 0.362580 0.818847
vt 0.171013 0.826354
vt 0.187767 0.865053
vt 0.171013 0.865053
vt 0.767211 0.839248
vt 0.804158 0.792499
vt 0.804158 0.839248
vt 0.455954 0.818824
vt 0.439200 0.865596
vt 0.439194 0.818824
vt 0.346123 0.817443
vt 0.383070 0.770673
vt 0.383070 0.817443
vt 0.642573 0.819866
vt 0.659333 0.858564
vt 0.642573 0.858564
vt 0.345820 0.865619
vt 0.187767 0.826354
vt 0.767211 0.792499
vt 0.455954 0.865596
vt 0.346123 0.770673
vt 0.659333 0.819866
vt 0.400636 0.865619
vt 0.383882 0.818847
vt 0.400636 0.818847
vt 0.153757 0.826354
vt 0.170510 0.865053
vt 0.153757 0.865053
vt 0.459182 0.770673
vt 0.422234 0.817422
vt 0.422234 0.770673
vt 0.438691 0.818824
vt 0.421937 0.865596
vt 0.421932 0.818824
vt 0.384179 0.817443
vt 0.421126 0.770673
vt 0.421126 0.817443
vt 0.136494 0.826354
vt 0.153254 0.865053
vt 0.136494 0.865053
vt 0.383876 0.865619
vt 0.170510 0.826354
vt 0.459182 0.817422
vt 0.438691 0.865596
vt 0.384179 0.770673
vt 0.153254 0.826354
vt 0.587445 0.718914
vt 0.553828 0.088135
vt 0.587445 0.008468
vt 0.786114 0.007238
vt 0.766944 0.635660
vt 0.766943 0.007238
vt 0.401174 0.853942
vt 0.420345 0.818675
vt 0.420345 0.853942
vt 0.588454 0.639248
vt 0.588454 0.010827
vt 0.642609 0.817979
vt 0.661780 0.730878
vt 0.661780 0.817979
vt 0.622863 0.718915
vt 0.642034 0.008468
vt 0.642034 0.718915
vt 0.792342 0.779388
vt 0.802171 0.746683
vt 0.802171 0.779388
vt 0.799226 0.780033
vt 0.805954 0.790326
vt 0.799226 0.790326
vt 0.753121 0.814590
vt 0.762949 0.781869
vt 0.762949 0.814590
vt 0.687493 0.848825
vt 0.680765 0.838531
vt 0.687493 0.838531
vt 0.276216 0.826265
vt 0.269488 0.858985
vt 0.269488 0.826265
vt 0.822724 0.718697
vt 0.829452 0.685976
vt 0.829452 0.718697
vt 0.753121 0.848276
vt 0.762949 0.815572
vt 0.762949 0.848276
vt 0.687695 0.838531
vt 0.694423 0.848825
vt 0.687695 0.848825
vt 0.792342 0.711999
vt 0.802171 0.679279
vt 0.802171 0.711999
vt 0.669098 0.838531
vt 0.675826 0.848825
vt 0.669098 0.848825
vt 0.730073 0.829154
vt 0.723345 0.861875
vt 0.723345 0.829154
vt 0.614298 0.869134
vt 0.621026 0.836414
vt 0.621026 0.869134
vt 0.257217 0.858970
vt 0.267045 0.826265
vt 0.267045 0.858970
vt 0.756858 0.668523
vt 0.763586 0.678817
vt 0.756858 0.678817
vt 0.792342 0.678297
vt 0.802171 0.645577
vt 0.802171 0.678297
vt 0.662168 0.838531
vt 0.668896 0.848825
vt 0.662168 0.848825
vt 0.763586 0.635157
vt 0.756858 0.667878
vt 0.756858 0.635157
vt 0.739876 0.829154
vt 0.733148 0.861875
vt 0.733148 0.829154
vt 0.713268 0.861858
vt 0.723096 0.829152
vt 0.723096 0.861858
vt 0.792296 0.780033
vt 0.799023 0.790326
vt 0.792296 0.790326
vt 0.792342 0.745701
vt 0.802171 0.712982
vt 0.802171 0.745701
vt 0.756858 0.679125
vt 0.763586 0.689419
vt 0.756858 0.689419
vt 0.614298 0.835433
vt 0.621026 0.802712
vt 0.621026 0.835433
vt 0.746806 0.829154
vt 0.740078 0.861875
vt 0.740078 0.829154
vt 0.553828 0.716556
vt 0.786114 0.635660
vt 0.401174 0.818675
vt 0.642609 0.730878
vt 0.622863 0.008468
vt 0.792342 0.746683
vt 0.805954 0.780033
vt 0.753121 0.781869
vt 0.680765 0.848825
vt 0.276216 0.858985
vt 0.822724 0.685976
vt 0.753121 0.815572
vt 0.694423 0.838531
vt 0.792342 0.679279
vt 0.675826 0.838531
vt 0.730073 0.861875
vt 0.614298 0.836414
vt 0.257217 0.826265
vt 0.763586 0.668523
vt 0.792342 0.645577
vt 0.668896 0.838531
vt 0.763586 0.667878
vt 0.739876 0.861875
vt 0.713268 0.829152
vt 0.799023 0.780033
vt 0.792342 0.712982
vt 0.763586 0.679125
vt 0.614298 0.802712
vt 0.746806 0.861875
vt 0.552819 0.718914
vt 0.519202 0.088135
vt 0.552819 0.008468
vt 0.805860 0.007238
vt 0.786690 0.635660
vt 0.786690 0.007238
vt 0.364166 0.853942
vt 0.383337 0.818675
vt 0.383337 0.853942
vt 0.484576 0.718914
vt 0.518193 0.088135
vt 0.518193 0.716556
vt 0.460023 0.858379
vt 0.479194 0.771278
vt 0.479194 0.858379
vt 0.642609 0.718915
vt 0.661780 0.008468
vt 0.661780 0.718915
vt 0.519202 0.716556
vt 0.805860 0.635660
vt 0.364166 0.818675
vt 0.484576 0.008468
vt 0.460023 0.771278
vt 0.642609 0.008468
vt 0.346073 0.009057
vt 0.379690 0.679060
vt 0.346073 0.758726
vt 0.830981 0.675471
vt 0.838978 0.007827
vt 0.838978 0.675471
vt 0.613010 0.801692
vt 0.621007 0.766425
vt 0.621007 0.801692
vt 0.483567 0.009057
vt 0.449950 0.679060
vt 0.449950 0.011417
vt 0.756877 0.633359
vt 0.764875 0.546259
vt 0.764875 0.633359
vt 0.806269 0.758726
vt 0.814266 0.009057
vt 0.814266 0.758726
vt 0.379690 0.011417
vt 0.830981 0.007827
vt 0.613010 0.766425
vt 0.483567 0.758726
vt 0.756877 0.546259
vt 0.806267 0.009057
vt 0.380699 0.009057
vt 0.414316 0.679060
vt 0.380699 0.758726
vt 0.830740 0.007827
vt 0.822743 0.675471
vt 0.822743 0.007827
vt 0.613010 0.765367
vt 0.621007 0.730101
vt 0.621007 0.765367
vt 0.448942 0.009057
vt 0.415324 0.679060
vt 0.415324 0.011417
vt 0.761091 0.692972
vt 0.753094 0.780072
vt 0.753094 0.692972
vt 0.814506 0.758726
vt 0.822503 0.009057
vt 0.822503 0.758726
vt 0.414316 0.011417
vt 0.830740 0.675471
vt 0.613010 0.730101
vt 0.448942 0.758726
vt 0.761091 0.780072
vt 0.814506 0.009057
vn 0.0000 -0.9977 0.0672
vn 0.0000 -0.0017 -1.0000
vn 0.0000 0.9934 0.1149
vn 0.0000 0.0017 1.0000
vn 1.0000 0.0000 -0.0000
vn -1.0000 -0.0000 -0.0000
vn 0.0000 0.0045 1.0000
vn 0.0000 -0.9976 0.0686
vn 0.0000 -0.0044 -1.0000
vn -1.0000 0.0000 0.0017
vn 0.0000 0.7934 0.6087
vn 0.0000 0.3291 -0.9443
vn -1.0000 0.0000 0.0018
vn 0.0000 0.3290 -0.9443
vn 0.0000 -1.0000 0.0020
vn 0.0000 1.0000 -0.0017
vn 0.0000 -1.0000 0.0019
vn 0.0000 0.4058 0.9139
vn 0.0000 -1.0000 0.0017
s off
f 2/1/1 3/2/1 1/3/1
f 4/4/2 7/5/2 3/6/2
f 8/7/3 5/8/3 7/9/3
f 6/10/4 1/11/4 5/12/4
f 3/13/5 5/14/5 1/15/5
f 4/16/6 6/17/6 8/18/6
f 9/19/7 14/20/7 10/21/7
f 13/22/8 12/23/8 14/24/8
f 16/25/1 17/26/1 15/27/1
f 18/28/2 21/29/2 17/30/2
f 22/31/3 19/32/3 21/33/3
f 20/34/4 15/35/4 19/36/4
f 17/37/5 19/38/5 15/39/5
f 18/40/6 20/41/6 22/42/6
f 9/19/6 120/43/6 13/44/6
f 119/45/9 122/46/9 120/43/9
f 121/47/10 60/48/10 56/49/10
f 121/47/11 9/19/11 10/21/11
f 11/50/12 122/46/12 12/23/12
f 2/1/1 4/51/1 3/2/1
f 4/4/2 8/52/2 7/5/2
f 8/7/3 6/53/3 5/8/3
f 6/10/4 2/54/4 1/11/4
f 3/13/5 7/55/5 5/14/5
f 4/16/6 2/56/6 6/17/6
f 9/19/7 13/44/7 14/20/7
f 13/22/8 11/50/8 12/23/8
f 16/25/1 18/57/1 17/26/1
f 18/28/2 22/58/2 21/29/2
f 22/31/3 20/59/3 19/32/3
f 20/34/4 16/60/4 15/35/4
f 17/37/5 21/61/5 19/38/5
f 18/40/6 16/62/6 20/41/6
f 9/19/6 119/45/6 120/43/6
f 119/45/9 121/47/9 122/46/9
f 121/47/13 122/46/13 60/48/13
f 121/47/11 119/45/11 9/19/11
f 11/50/14 120/43/14 122/46/14
f 23/63/6 29/64/6 25/65/6
f 25/66/4 30/67/4 26/68/4
f 29/69/15 28/70/15 30/71/15
f 24/72/5 30/73/5 28/74/5
f 23/75/16 26/76/16 24/77/16
f 27/78/2 24/79/2 28/80/2
f 23/63/6 27/81/6 29/64/6
f 25/66/4 29/82/4 30/67/4
f 29/69/15 27/83/15 28/70/15
f 24/72/5 26/84/5 30/73/5
f 23/75/16 25/85/16 26/76/16
f 27/78/2 23/86/2 24/79/2
f 31/87/6 37/88/6 33/89/6
f 33/90/4 38/91/4 34/92/4
f 37/93/15 36/94/15 38/95/15
f 32/96/5 38/97/5 36/98/5
f 31/99/16 34/100/16 32/101/16
f 35/102/2 32/103/2 36/104/2
f 31/87/6 35/105/6 37/88/6
f 33/90/4 37/106/4 38/91/4
f 37/93/15 35/107/15 36/94/15
f 32/96/5 34/108/5 38/97/5
f 31/99/16 33/109/16 34/100/16
f 35/102/2 31/110/2 32/103/2
f 39/111/6 45/112/6 41/113/6
f 41/114/4 46/115/4 42/116/4
f 45/117/17 44/118/17 46/119/17
f 40/120/5 46/121/5 44/122/5
f 39/123/16 42/124/16 40/125/16
f 43/126/2 40/127/2 44/128/2
f 39/111/6 43/129/6 45/112/6
f 41/114/4 45/130/4 46/115/4
f 45/117/17 43/131/17 44/118/17
f 40/120/5 42/132/5 46/121/5
f 39/123/16 41/133/16 42/124/16
f 43/126/2 39/134/2 40/127/2
f 47/135/6 53/136/6 49/137/6
f 49/138/4 54/139/4 50/140/4
f 53/141/17 52/142/17 54/143/17
f 48/144/5 54/145/5 52/146/5
f 47/147/16 50/148/16 48/149/16
f 51/150/2 48/151/2 52/152/2
f 47/135/6 51/153/6 53/136/6
f 49/138/4 53/154/4 54/139/4
f 53/141/17 51/155/17 52/142/17
f 48/144/5 50/156/5 54/145/5
f 47/147/16 49/157/16 50/148/16
f 51/150/2 47/158/2 48/151/2
f 59/159/6 57/160/6 55/161/6
f 57/162/4 62/163/4 58/164/4
f 61/165/8 60/166/8 62/167/8
f 60/48/5 58/168/5 62/169/5
f 55/170/18 58/171/18 56/172/18
f 59/173/2 56/174/2 60/175/2
f 88/176/19 89/177/19 87/178/19
f 90/179/2 93/180/2 89/181/2
f 94/182/16 91/183/16 93/184/16
f 92/185/4 87/186/4 91/187/4
f 93/188/5 87/189/5 89/190/5
f 90/191/6 92/192/6 94/193/6
f 96/194/19 97/195/19 95/196/19
f 98/197/2 101/198/2 97/199/2
f 102/200/16 99/201/16 101/202/16
f 100/203/4 95/204/4 99/205/4
f 101/206/5 95/207/5 97/208/5
f 98/209/6 100/210/6 102/211/6
f 104/212/19 105/213/19 103/214/19
f 106/215/2 109/216/2 105/217/2
f 110/218/16 107/219/16 109/220/16
f 108/221/4 103/222/4 107/223/4
f 109/224/5 103/225/5 105/226/5
f 106/227/6 108/228/6 110/229/6
f 112/230/19 113/231/19 111/232/19
f 114/233/2 117/234/2 113/235/2
f 118/236/16 115/237/16 117/238/16
f 116/239/4 111/240/4 115/241/4
f 117/242/5 111/243/5 113/244/5
f 114/245/6 116/246/6 118/247/6
f 59/159/6 61/248/6 57/160/6
f 57/162/4 61/249/4 62/163/4
f 61/165/8 59/250/8 60/166/8
f 60/48/5 56/49/5 58/168/5
f 55/170/18 57/251/18 58/171/18
f 59/173/2 55/252/2 56/174/2
f 88/176/19 90/253/19 89/177/19
f 90/179/2 94/254/2 93/180/2
f 94/182/16 92/255/16 91/183/16
f 92/185/4 88/256/4 87/186/4
f 93/188/5 91/257/5 87/189/5
f 90/191/6 88/258/6 92/192/6
f 96/194/19 98/259/19 97/195/19
f 98/197/2 102/260/2 101/198/2
f 102/200/16 100/261/16 99/201/16
f 100/203/4 96/262/4 95/204/4
f 101/206/5 99/263/5 95/207/5
f 98/209/6 96/264/6 100/210/6
f 104/212/19 106/265/19 105/213/19
f 106/215/2 110/266/2 109/216/2
f 110/218/16 108/267/16 107/219/16
f 108/221/4 104/268/4 103/222/4
f 109/224/5 107/269/5 103/225/5
f 106/227/6 104/270/6 108/228/6
f 112/230/19 114/271/19 113/231/19
f 114/233/2 118/272/2 117/234/2
f 118/236/16 116/273/16 115/237/16
f 116/239/4 112/274/4 111/240/4
f 117/242/5 115/275/5 111/243/5
f 114/245/6 112/276/6 116/246/6
f 67/277/6 65/278/6 63/279/6
f 65/280/4 70/281/4 66/282/4
f 69/283/8 68/284/8 70/285/8
f 68/286/5 66/287/5 70/288/5
f 63/289/18 66/290/18 64/291/18
f 67/292/2 64/293/2 68/294/2
f 67/277/6 69/295/6 65/278/6
f 65/280/4 69/296/4 70/281/4
f 69/283/8 67/297/8 68/284/8
f 68/286/5 64/298/5 66/287/5
f 63/289/18 65/299/18 66/290/18
f 67/292/2 63/300/2 64/293/2
f 75/301/6 73/302/6 71/303/6
f 73/304/4 78/305/4 74/306/4
f 77/307/8 76/308/8 78/309/8
f 76/310/5 74/311/5 78/312/5
f 71/313/18 74/314/18 72/315/18
f 75/316/2 72/317/2 76/318/2
f 75/301/6 77/319/6 73/302/6
f 73/304/4 77/320/4 78/305/4
f 77/307/8 75/321/8 76/308/8
f 76/310/5 72/322/5 74/311/5
f 71/313/18 73/323/18 74/314/18
f 75/316/2 71/324/2 72/317/2
f 83/325/6 81/326/6 79/327/6
f 81/328/4 86/329/4 82/330/4
f 85/331/8 84/332/8 86/333/8
f 84/334/5 82/335/5 86/336/5
f 79/337/18 82/338/18 80/339/18
f 83/340/2 80/341/2 84/342/2
f 83/325/6 85/343/6 81/326/6
f 81/328/4 85/344/4 86/329/4
f 85/331/8 83/345/8 84/332/8
f 84/334/5 80/346/5 82/335/5
f 79/337/18 81/347/18 82/338/18
f 83/340/2 79/348/2 80/341/2
