# Blender v2.91.0 OBJ File: 'untitled.blend'
# www.blender.org
o Cube.013_Cube.015
v -1.000000 5.632123 8.915321
v -1.000000 5.916691 8.915321
v -1.000000 5.632123 -0.994723
v 0.195081 5.632123 8.915321
v 0.195081 5.916691 8.915321
v 0.195081 5.632123 -0.994723
v -1.000000 5.632123 -0.582042
v -1.000000 5.916691 -0.582042
v 0.195081 5.632123 -0.582042
v 0.195081 5.916691 -0.582042
v 0.195081 -0.999898 -0.994723
v -1.000000 -0.999898 -0.994723
v 0.195081 -0.999898 -0.582042
v -1.000000 -0.999898 -0.582042
v -1.000000 5.632123 8.713981
v 0.195081 5.916691 8.713981
v -1.000000 5.916691 8.713981
v 0.195081 5.632123 8.713981
v -0.645081 5.632123 -0.994723
v -0.645081 5.632123 8.915321
v -0.645081 5.916691 8.915321
v -0.645081 5.916691 -0.582042
v -0.645081 5.632123 -0.582042
v -0.645081 -0.999898 -0.994723
v -0.645081 -0.999898 -0.582042
v -0.645081 5.916691 8.713981
v -0.645081 5.632123 8.713981
v 0.195081 5.632123 8.713981
v 0.195081 5.632123 -0.582042
v -0.645081 5.632123 -0.582042
v -0.645081 5.632123 8.713981
v -1.000000 5.632123 8.713981
v 0.195081 5.916691 8.713981
v -1.000000 5.916691 8.713981
v 0.195081 5.632123 8.713981
v -0.645081 5.916691 8.713981
v -0.645081 5.632123 8.713981
v 0.195081 -0.999898 -0.582042
v 0.195081 5.632123 -0.582042
v -0.645081 5.632123 -0.582042
v -0.645081 -0.999898 -0.582042
v 0.195081 -0.999898 -0.582042
v 0.195081 5.632123 -0.582042
v -0.645081 5.632123 -0.582042
v -0.645081 -0.999898 -0.582042
v 0.195083 -0.999898 8.912798
v 0.195083 5.632123 8.912798
v -0.645079 5.632123 8.912798
v -0.645079 -0.999898 8.912798
v -1.000000 5.916691 -0.707783
v -1.000000 5.632123 -0.994723
v -1.000000 5.909556 -0.771633
v -1.000000 5.888510 -0.832282
v -1.000000 5.854608 -0.886687
v -1.000000 5.809549 -0.932122
v -1.000000 5.755593 -0.966307
v -1.000000 5.695446 -0.987529
v 0.195081 5.632123 -0.994723
v 0.195081 5.916691 -0.707783
v 0.195081 5.695446 -0.987529
v 0.195081 5.755593 -0.966307
v 0.195081 5.809549 -0.932122
v 0.195081 5.854608 -0.886687
v 0.195081 5.888510 -0.832282
v 0.195081 5.909556 -0.771633
v -0.645081 5.629751 -0.994723
v -0.645081 5.916691 -0.707783
v -0.645081 5.693602 -0.987529
v -0.645081 5.754250 -0.966307
v -0.645081 5.808655 -0.932122
v -0.645081 5.854090 -0.886687
v -0.645081 5.888275 -0.832282
v -0.645081 5.909497 -0.771633
vt 0.702677 0.518732
vt 0.702559 0.536408
vt 0.702677 0.536408
vt 0.008393 0.022684
vt 0.008393 0.028946
vt 0.022565 0.028946
vt 0.008393 0.491919
vt 0.022565 0.501946
vt 0.022565 0.491919
vt 0.768242 0.886531
vt 0.782414 0.904207
vt 0.782414 0.886531
vt 0.807208 0.471366
vt 0.849051 0.481394
vt 0.849051 0.471366
vt 0.730903 0.481409
vt 0.748580 0.491319
vt 0.748580 0.481409
vt 0.703099 0.008751
vt 0.699945 0.008393
vt 0.699945 0.028946
vt 0.699945 0.008393
vt 0.369648 0.028946
vt 0.714117 0.491919
vt 0.699945 0.491919
vt 0.751456 0.844688
vt 0.730903 0.886531
vt 0.751456 0.886531
vt 0.959818 0.685773
vt 0.942142 0.355476
vt 0.942142 0.685773
vt 0.730903 0.508110
vt 0.772746 0.827899
vt 0.772746 0.508107
vt 0.352862 0.008393
vt 0.022565 0.008393
vt 0.714117 0.501946
vt 0.699945 0.501946
vt 0.730903 0.023863
vt 0.748579 0.023863
vt 0.702558 0.595037
vt 0.702558 0.595037
vt 0.702558 0.595037
vt 0.849051 0.008393
vt 0.866727 0.471366
vt 0.866727 0.008393
vt 0.790422 0.481410
vt 0.790422 0.023864
vt 0.790422 0.827898
vt 0.790422 0.508105
vt 0.702558 0.595037
vt 0.702558 0.595037
vt 0.702558 0.595037
vt 0.751456 0.904207
vt 0.730903 0.904207
vt 0.702677 0.578251
vt 0.702677 0.578251
vt 0.790422 0.491320
vt 0.866727 0.481394
vt 0.768242 0.844688
vt 0.782414 0.844688
vt 0.748579 0.017674
vt 0.790422 0.017675
vt 0.807208 0.498179
vt 0.849051 0.961152
vt 0.849051 0.498179
vt 0.702558 0.595037
vt 0.702558 0.595037
vt 0.702558 0.595037
vt 0.702558 0.595037
vt 0.702558 0.595037
vt 0.702558 0.595037
vt 0.702558 0.595037
vt 0.702558 0.595037
vt 0.702558 0.595037
vt 0.702558 0.595037
vt 0.702558 0.595037
vt 0.702558 0.595037
vt 0.702558 0.595037
vt 0.702558 0.595037
vt 0.702558 0.595037
vt 0.702558 0.595037
vt 0.702558 0.595037
vt 0.702558 0.595037
vt 0.883513 0.008393
vt 0.925356 0.481268
vt 0.925356 0.008393
vt 0.702558 0.595037
vt 0.702558 0.595037
vt 0.983985 0.338690
vt 0.942142 0.008393
vt 0.942142 0.338690
vt 0.008393 0.518732
vt 0.338690 0.991607
vt 0.338690 0.518732
vt 0.685772 0.991608
vt 0.355475 0.518733
vt 0.355475 0.991608
vt 0.925356 0.965385
vt 0.883513 0.498054
vt 0.883513 0.965384
vt 0.790422 0.014478
vt 0.748579 0.014477
vt 0.790422 0.011333
vt 0.748579 0.011331
vt 0.790422 0.008397
vt 0.748580 0.008393
vt 0.954305 0.744401
vt 0.951591 0.702559
vt 0.951548 0.744402
vt 0.948564 0.702559
vt 0.948499 0.744402
vt 0.945399 0.702559
vt 0.945310 0.744402
vt 0.942256 0.702559
vt 0.942142 0.744402
vt 0.730903 0.014477
vt 0.730903 0.017674
vt 0.730903 0.011332
vt 0.730903 0.008397
vt 0.951591 0.762078
vt 0.954330 0.762077
vt 0.948564 0.762078
vt 0.945399 0.762078
vt 0.942256 0.762078
vt 0.702677 0.518732
vt 0.022565 0.008393
vt 0.019412 0.008751
vt 0.016416 0.009808
vt 0.013729 0.011511
vt 0.011485 0.013773
vt 0.009796 0.016483
vt 0.008748 0.019503
vt 0.008393 0.501946
vt 0.768242 0.904207
vt 0.807208 0.481394
vt 0.730903 0.491319
vt 0.714117 0.028946
vt 0.714117 0.022684
vt 0.713762 0.019503
vt 0.712714 0.016483
vt 0.711025 0.013773
vt 0.708781 0.011511
vt 0.706094 0.009808
vt 0.369648 0.008393
vt 0.730903 0.844688
vt 0.959818 0.355476
vt 0.730903 0.827902
vt 0.352862 0.028946
vt 0.807208 0.961152
vt 0.702558 0.595037
vt 0.702558 0.595037
vt 0.883513 0.481268
vt 0.983985 0.008393
vt 0.008393 0.991607
vt 0.685772 0.518733
vt 0.925356 0.498054
vt 0.954330 0.702558
vn 0.0000 0.0000 1.0000
vn 1.0000 -0.0000 0.0000
vn 0.0000 -1.0000 0.0000
vn 0.0000 1.0000 0.0000
vn -1.0000 0.0000 0.0000
vn 0.0000 0.0000 -1.0000
vn -0.0001 0.9937 -0.1119
vn -0.0003 0.9439 -0.3303
vn -0.0005 0.8467 -0.5320
vn -0.0008 0.7071 -0.7071
vn -0.0009 0.5320 -0.8467
vn -0.0007 0.3303 -0.9439
vn -0.0003 0.1120 -0.9937
vn 0.0000 0.9938 -0.1110
vn 0.0002 0.9447 -0.3278
vn 0.0006 0.8487 -0.5289
vn 0.0010 0.7100 -0.7042
vn 0.0013 0.5352 -0.8447
vn 0.0013 0.3327 -0.9430
vn 0.0006 0.1129 -0.9936
vn 0.0000 0.9938 -0.1111
vn -0.0001 0.9447 -0.3278
vn -0.0002 0.8487 -0.5288
vn -0.0004 0.7100 -0.7042
vn -0.0006 0.5352 -0.8447
vn -0.0005 0.3327 -0.9430
vn -0.0002 0.1129 -0.9936
vn 0.0002 0.9937 -0.1119
vn 0.0006 0.9439 -0.3303
vn 0.0012 0.8467 -0.5320
vn 0.0018 0.7071 -0.7071
vn 0.0020 0.5320 -0.8467
vn 0.0017 0.3303 -0.9439
vn 0.0007 0.1120 -0.9937
s off
f 3/1/1 66/2/1 19/3/1
f 59/4/2 10/5/2 9/6/2
f 16/7/2 4/8/2 18/9/2
f 21/10/1 1/11/1 20/12/1
f 18/13/3 20/14/3 27/15/3
f 17/16/4 21/17/4 26/18/4
f 57/19/5 51/20/5 7/21/5
f 3/22/5 14/23/5 7/21/5
f 17/24/5 7/21/5 15/25/5
f 11/26/3 25/27/3 24/28/3
f 7/29/1 25/30/1 23/31/1
f 6/32/6 24/33/6 19/34/6
f 9/6/2 11/35/2 6/36/2
f 2/37/5 15/25/5 1/38/5
f 8/39/4 26/18/4 22/40/4
f 27/41/1 30/42/1 31/43/1
f 10/5/2 18/9/2 9/6/2
f 23/44/3 15/45/3 7/46/3
f 22/40/4 16/47/4 10/48/4
f 19/34/6 12/49/6 3/50/6
f 13/51/1 39/52/1 38/53/1
f 12/54/3 25/27/3 14/55/3
f 19/3/1 58/56/1 6/57/1
f 26/18/4 5/58/4 16/47/4
f 27/15/3 1/59/3 15/45/3
f 5/60/1 20/12/1 4/61/1
f 67/62/4 10/48/4 59/63/4
f 29/64/3 31/65/3 30/66/3
f 9/67/1 28/68/1 29/69/1
f 18/70/1 31/43/1 28/68/1
f 23/71/1 29/69/1 30/42/1
f 18/70/1 33/72/1 35/73/1
f 26/74/1 34/75/1 36/76/1
f 26/74/1 33/72/1 36/76/1
f 27/41/1 35/73/1 37/77/1
f 27/41/1 32/78/1 37/77/1
f 15/79/1 34/75/1 32/78/1
f 40/80/1 45/81/1 44/82/1
f 23/71/1 41/83/1 40/80/1
f 25/84/1 38/53/1 41/83/1
f 9/67/1 40/80/1 39/52/1
f 42/85/3 49/86/3 45/87/3
f 39/52/1 44/82/1 43/88/1
f 41/83/1 42/89/1 45/81/1
f 38/53/1 43/88/1 42/89/1
f 48/90/1 46/91/1 47/92/1
f 43/93/2 46/94/2 42/95/2
f 45/96/5 48/97/5 44/98/5
f 44/99/4 47/100/4 43/101/4
f 67/62/7 65/102/7 73/103/7
f 73/103/8 64/104/8 72/105/8
f 72/105/9 63/106/9 71/107/9
f 71/108/10 62/109/10 70/110/10
f 70/110/11 61/111/11 69/112/11
f 69/112/12 60/113/12 68/114/12
f 68/114/13 58/115/13 66/116/13
f 67/62/14 52/117/14 50/118/14
f 73/103/15 53/119/15 52/117/15
f 72/105/16 54/120/16 53/119/16
f 71/108/17 55/121/17 54/122/17
f 70/110/18 56/123/18 55/121/18
f 69/112/19 57/124/19 56/123/19
f 68/114/20 51/125/20 57/124/20
f 50/118/4 22/40/4 67/62/4
f 3/1/1 51/126/1 66/2/1
f 9/6/1 6/36/1 58/127/1
f 58/127/2 60/128/2 9/6/2
f 60/128/2 61/129/2 9/6/2
f 61/129/2 62/130/2 9/6/2
f 62/130/2 63/131/2 9/6/2
f 63/131/2 64/132/2 9/6/2
f 64/132/2 65/133/2 9/6/2
f 65/133/2 59/4/2 9/6/2
f 16/7/2 5/134/2 4/8/2
f 21/10/1 2/135/1 1/11/1
f 18/13/3 4/136/3 20/14/3
f 17/16/4 2/137/4 21/17/4
f 7/21/5 8/138/5 50/139/5
f 50/139/5 52/140/5 7/21/5
f 52/140/5 53/141/5 7/21/5
f 53/141/5 54/142/5 7/21/5
f 54/142/5 55/143/5 7/21/5
f 55/143/5 56/144/5 7/21/5
f 56/144/5 57/19/5 7/21/5
f 51/20/1 3/22/1 7/21/1
f 3/22/5 12/145/5 14/23/5
f 17/24/5 8/138/5 7/21/5
f 11/26/3 13/146/3 25/27/3
f 7/29/1 14/147/1 25/30/1
f 6/32/6 11/148/6 24/33/6
f 9/6/2 13/149/2 11/35/2
f 2/37/5 17/24/5 15/25/5
f 8/39/4 17/16/4 26/18/4
f 27/41/1 23/71/1 30/42/1
f 10/5/2 16/7/2 18/9/2
f 23/44/3 27/15/3 15/45/3
f 22/40/4 26/18/4 16/47/4
f 19/34/6 24/33/6 12/49/6
f 13/51/1 9/67/1 39/52/1
f 12/54/3 24/28/3 25/27/3
f 19/3/1 66/2/1 58/56/1
f 26/18/4 21/17/4 5/58/4
f 27/15/3 20/14/3 1/59/3
f 5/60/1 21/10/1 20/12/1
f 67/62/4 22/40/4 10/48/4
f 29/64/3 28/150/3 31/65/3
f 9/67/1 18/70/1 28/68/1
f 18/70/1 27/41/1 31/43/1
f 23/71/1 9/67/1 29/69/1
f 18/70/1 16/151/1 33/72/1
f 26/74/1 17/152/1 34/75/1
f 26/74/1 16/151/1 33/72/1
f 27/41/1 18/70/1 35/73/1
f 27/41/1 15/79/1 32/78/1
f 15/79/1 17/152/1 34/75/1
f 40/80/1 41/83/1 45/81/1
f 23/71/1 25/84/1 41/83/1
f 25/84/1 13/51/1 38/53/1
f 9/67/1 23/71/1 40/80/1
f 42/85/3 46/153/3 49/86/3
f 39/52/1 40/80/1 44/82/1
f 41/83/1 38/53/1 42/89/1
f 38/53/1 39/52/1 43/88/1
f 48/90/1 49/154/1 46/91/1
f 43/93/2 47/155/2 46/94/2
f 45/96/5 49/156/5 48/97/5
f 44/99/4 48/157/4 47/100/4
f 67/62/21 59/63/21 65/102/21
f 73/103/22 65/102/22 64/104/22
f 72/105/23 64/104/23 63/106/23
f 71/108/24 63/158/24 62/109/24
f 70/110/25 62/109/25 61/111/25
f 69/112/26 61/111/26 60/113/26
f 68/114/27 60/113/27 58/115/27
f 67/62/28 73/103/28 52/117/28
f 73/103/29 72/105/29 53/119/29
f 72/105/30 71/107/30 54/120/30
f 71/108/31 70/110/31 55/121/31
f 70/110/32 69/112/32 56/123/32
f 69/112/33 68/114/33 57/124/33
f 68/114/34 66/116/34 51/125/34
f 50/118/4 8/39/4 22/40/4
